<?xml version="1.0" standalone="no"?><!DOCTYPE svg PUBLIC "-//W3C//DTD SVG 1.1//EN" "http://www.w3.org/Graphics/SVG/1.1/DTD/svg11.dtd"><svg height="1024" node-id="1" sillyvg="true" template-height="1024" template-width="1024" version="1.1" viewBox="0 0 1024 1024" width="1024" xmlns="http://www.w3.org/2000/svg" xmlns:xlink="http://www.w3.org/1999/xlink"><defs node-id="48"></defs><path d="M 905.09 899.80 L 103.09 899.80 C 89.77 899.80 78.97 889.00 78.97 875.68 C 78.97 862.36 89.77 851.56 103.09 851.56 L 905.09 851.56 C 918.41 851.56 929.21 862.36 929.21 875.68 C 929.21 889.00 918.41 899.80 905.09 899.80 Z M 905.00 871.56 L 103.12 871.56 C 100.84 871.56 99.00 873.40 99.00 875.68 C 99.00 877.96 100.84 879.80 103.12 879.80 L 905.00 879.80 C 907.28 879.80 909.12 877.96 909.12 875.68 C 909.12 873.40 907.28 871.56 905.00 871.56 Z" fill="#d3dcf4" fill-rule="nonzero" node-id="50" stroke="none" target-height="48.23999" target-width="850.24" target-x="78.97" target-y="851.56006"></path><path d="M 676.34 915.52 L 723.34 915.52 C 738.10 915.52 753.23 914.52 767.92 916.06 C 772.55 916.55 778.01 916.97 782.25 919.25 C 786.25 921.39 785.65 924.80 784.08 928.37 C 781.84 933.48 779.44 938.20 779.83 943.96 C 780.25 950.11 785.31 952.57 790.83 953.73 C 807.14 957.17 824.31 954.93 840.83 954.43 C 848.08 954.21 848.11 942.91 840.83 943.13 C 825.89 943.59 810.64 945.40 795.75 943.13 C 795.26 943.06 789.33 941.25 789.38 941.20 C 789.10 941.45 791.79 943.40 791.17 943.91 C 791.21 943.43 791.21 942.96 791.17 942.48 C 791.18 941.27 791.39 940.06 791.80 938.92 C 793.38 934.05 796.40 929.92 796.80 924.64 C 797.72 911.24 783.96 906.83 773.32 905.38 C 758.64 903.38 743.82 904.18 729.02 904.18 L 676.34 904.18 C 669.08 904.23 669.06 915.52 676.34 915.52 Z" fill="#d3dcf4" fill-rule="nonzero" node-id="52" stroke="none" target-height="53.789978" target-width="179.04999" target-x="669.06" target-y="903.38"></path><path d="M 207.00 920.54 L 370.12 920.54 C 377.39 920.54 377.40 909.25 370.12 909.25 L 207.00 909.25 C 199.70 909.25 199.69 920.54 207.00 920.54 Z" fill="#d3dcf4" fill-rule="nonzero" node-id="54" stroke="none" target-height="11.289978" target-width="177.71" target-x="199.68999" target-y="909.25"></path><g node-id="134"><path d="M 887.00 729.87 L 866.42 718.00 C 864.91 717.10 865.06 715.55 866.85 714.51 L 886.40 703.22 C 888.25 702.19 890.47 702.10 892.40 702.97 L 913.00 714.83 C 914.55 715.73 914.35 717.29 912.56 718.33 L 893.00 729.62 C 891.15 730.62 888.93 730.71 887.00 729.87 Z" fill="#c9cfe5" fill-opacity="0.3" fill-rule="nonzero" group-id="1" node-id="57" stroke="none" target-height="28.615479" target-width="49.640015" target-x="864.91" target-y="702.09894"></path></g><path d="M 914.06 706.65 C 914.07 706.59 914.07 706.53 914.06 706.47 L 914.06 391.23 L 865.38 391.23 L 865.38 706.68 C 865.41 707.33 865.79 707.91 866.38 708.19 L 887.00 720.05 C 888.93 720.90 891.15 720.81 893.00 719.80 L 912.54 708.50 C 913.28 708.16 913.83 707.49 914.01 706.69 Z" fill="#dee1f0" fill-rule="nonzero" node-id="60" stroke="none" target-height="329.66904" target-width="48.690063" target-x="865.38" target-y="391.23"></path><g node-id="135"><path d="M 887.00 404.73 L 866.43 392.86 C 864.92 391.97 865.07 390.40 866.86 389.38 L 886.41 378.08 C 888.26 377.05 890.48 376.95 892.41 377.82 C 893.42 378.42 900.29 382.38 913.00 389.70 C 914.55 390.59 914.35 392.15 912.56 393.18 L 893.00 404.47 C 891.15 405.49 888.93 405.59 887.00 404.73 Z" fill="#fafbfd" fill-rule="nonzero" group-id="2" node-id="63" stroke="none" target-height="28.633179" target-width="49.630005" target-x="864.92" target-y="376.95364"></path></g><path d="M 217.93 510.79 L 197.31 498.92 C 195.76 498.03 195.96 496.45 197.75 495.42 L 217.36 484.13 C 219.22 483.09 221.48 482.99 223.42 483.88 L 244.00 495.75 C 245.56 496.65 245.37 498.21 243.57 499.25 L 224.00 510.54 C 222.13 511.59 219.88 511.68 217.93 510.79 Z" fill="#ebf0ff" fill-rule="nonzero" node-id="66" stroke="none" target-height="28.691223" target-width="49.80002" target-x="195.75998" target-y="482.99356"></path><path d="M 245.86 486.86 C 245.87 486.80 245.87 486.74 245.86 486.68 L 243.79 413.91 L 195.08 415.30 L 197.15 488.30 C 197.22 488.96 197.63 489.52 198.24 489.78 L 219.18 501.06 C 221.14 501.86 223.35 501.70 225.18 500.64 L 244.42 488.79 C 245.16 488.43 245.69 487.74 245.84 486.93 L 245.84 486.93 Z" fill="#5d83ff" fill-rule="nonzero" node-id="68" stroke="none" target-height="87.94556" target-width="50.790085" target-x="195.08" target-y="413.91"></path><path d="M 216.93 428.11 L 196.31 416.23 C 194.76 415.34 194.96 413.78 196.75 412.75 L 216.32 401.46 C 218.19 400.42 220.43 400.32 222.38 401.20 L 243.00 413.09 C 244.56 413.99 244.36 415.55 242.57 416.58 L 223.00 427.88 C 221.12 428.90 218.88 428.98 216.93 428.11 Z" fill="#ebf0ff" fill-rule="nonzero" node-id="70" stroke="none" target-height="28.657501" target-width="49.800003" target-x="194.76" target-y="400.3231"></path><path d="M 326.50 749.00 L 208.35 801.39 L 191.91 855.28 C 185.01 845.28 168.69 814.08 166.41 809.01 L 130.00 727.00 C 128.91 724.57 128.83 721.80 129.79 719.31 C 130.75 716.83 132.66 714.82 135.10 713.75 L 282.00 648.59 C 284.43 647.50 287.20 647.42 289.69 648.38 C 292.18 649.34 294.18 651.25 295.25 653.69 L 331.64 735.69 C 332.75 738.13 332.83 740.92 331.86 743.42 C 330.89 745.93 328.96 747.94 326.50 749.00 Z" fill="#3a3a77" fill-rule="nonzero" node-id="72" stroke="none" target-height="207.85706" target-width="203.99512" target-x="128.83298" target-y="647.423"></path><path d="M 213.87 744.22 C 213.87 749.04 210.95 753.39 206.49 755.23 C 202.03 757.07 196.90 756.04 193.50 752.62 C 190.10 749.20 189.09 744.06 190.95 739.61 C 192.81 735.16 197.18 732.27 202.00 732.29 C 208.57 732.32 213.88 737.65 213.87 744.22 Z" fill="#ebeaff" fill-rule="nonzero" node-id="74" stroke="none" target-height="24.799316" target-width="24.78415" target-x="189.09142" target-y="732.2698"></path><path d="M 262.19 722.25 C 262.19 728.83 256.85 734.17 250.27 734.17 C 243.69 734.17 238.35 728.83 238.35 722.25 C 238.35 715.67 243.69 710.33 250.27 710.33 C 256.85 710.34 262.18 715.67 262.19 722.25 Z" fill="#ebeaff" fill-rule="nonzero" node-id="76" stroke="none" target-height="23.839966" target-width="23.839996" target-x="238.35" target-y="710.33"></path><path d="M 636.79 855.56 L 636.60 855.29" fill="#3a3a77" fill-rule="nonzero" node-id="78" stroke="none" target-height="0.2701416" target-width="0.19000244" target-x="636.6" target-y="855.2899"></path><path d="M 794.63 854.51 L 793.57 855.29" fill="#3a3a77" fill-rule="nonzero" node-id="80" stroke="none" target-height="0.77996826" target-width="1.0599976" target-x="793.57" target-y="854.50995"></path><path d="M 636.60 855.28 L 545.33 730.58 C 543.35 727.89 542.53 724.52 543.04 721.23 C 543.55 717.93 545.35 714.97 548.05 713.00 L 809.37 521.82 C 812.06 519.84 815.42 519.02 818.72 519.53 C 822.02 520.04 824.98 521.84 826.94 524.54 L 965.54 713.93 C 969.63 719.53 968.41 727.37 962.82 731.47 L 794.00 855.14" fill="#3a3a77" fill-rule="nonzero" node-id="82" stroke="none" target-height="336.2625" target-width="427.09613" target-x="542.531" target-y="519.0175"></path><path d="M 830.48 645.60 L 876.48 708.40 L 877.04 709.33 L 877.41 710.33 L 877.60 711.33 L 877.60 712.86 L 877.17 714.32 L 876.69 715.22 L 876.00 716.00 L 875.19 716.73 L 875.19 716.73 L 874.25 717.29 L 873.25 717.65 L 872.25 717.85 L 870.73 717.80 L 869.26 717.38 L 868.36 716.90 L 867.55 716.25 L 866.82 715.44 L 820.87 652.64 L 820.31 651.71 L 819.94 650.71 L 819.75 649.71 L 819.75 648.18 L 820.17 646.72 L 820.66 645.82 L 821.30 645.01 L 822.12 644.29 L 822.12 644.29 L 823.06 643.72 L 824.06 643.35 L 825.06 643.16 L 826.58 643.16 L 828.05 643.59 L 828.95 644.07 L 829.76 644.72 Z" fill="#ebeaff" fill-rule="nonzero" node-id="84" stroke="none" target-height="74.69" target-width="57.849976" target-x="819.75" target-y="643.16"></path><path d="M 776.52 681.38 L 822.52 744.17 L 823.08 745.11 L 823.45 746.11 L 823.64 747.11 L 823.64 748.63 L 823.22 750.09 L 822.73 751.00 L 822.09 751.80 L 821.27 752.53 L 821.27 752.53 L 820.34 753.09 L 819.34 753.46 L 818.34 753.65 L 816.81 753.65 L 815.34 753.23 L 814.45 752.74 L 813.64 752.10 L 812.91 751.28 L 766.91 688.49 L 766.34 687.55 L 765.98 686.55 L 765.78 685.55 L 765.83 684.03 L 766.25 682.56 L 766.73 681.66 L 767.38 680.85 L 768.19 680.13 L 768.19 680.13 L 769.13 679.57 L 770.13 679.20 L 771.13 679.01 L 772.66 679.01 L 774.12 679.43 L 775.02 679.92 L 775.83 680.56 Z" fill="#ebeaff" fill-rule="nonzero" node-id="86" stroke="none" target-height="74.63995" target-width="57.859924" target-x="765.78" target-y="679.01"></path><path d="M 724.43 719.00 L 770.43 781.79 L 770.99 782.73 L 771.36 783.73 L 771.55 784.73 L 771.55 786.25 L 771.13 787.72 L 770.64 788.62 L 770.00 789.43 L 769.18 790.16 L 769.18 790.16 L 768.24 790.71 L 767.24 791.08 L 766.24 791.27 L 764.72 791.27 L 763.25 790.85 L 762.35 790.36 L 761.54 789.72 L 760.82 788.90 L 714.82 726.12 L 714.27 725.12 L 713.90 724.12 L 713.71 723.12 L 713.71 721.60 L 714.13 720.14 L 714.62 719.23 L 715.26 718.43 L 716.09 717.70 L 716.09 717.70 L 717.02 717.14 L 718.02 716.77 L 719.02 716.58 L 720.55 716.58 L 722.01 717.00 L 722.91 717.49 L 723.72 718.13 Z" fill="#ebeaff" fill-rule="nonzero" node-id="88" stroke="none" target-height="74.69" target-width="57.839905" target-x="713.7101" target-y="716.58"></path><path d="M 795.25 597.07 C 794.14 609.62 792.89 622.17 791.49 634.72 C 791.15 637.72 794.32 640.36 797.14 640.36 C 800.47 640.36 802.44 637.76 802.78 634.72 C 804.17 622.17 805.43 609.62 806.55 597.07 C 806.82 594.02 803.76 591.42 800.90 591.42 C 797.62 591.42 795.52 594.00 795.25 597.07 Z" fill="#fe9f39" fill-rule="nonzero" node-id="90" stroke="none" target-height="48.940002" target-width="15.669983" target-x="791.15" target-y="591.42"></path><path d="M 778.69 618.20 C 790.69 621.20 802.95 623.31 815.09 625.73 C 822.19 627.15 825.22 616.26 818.09 614.84 C 805.95 612.42 793.72 610.28 781.69 607.31 C 774.64 605.56 771.65 616.46 778.69 618.20 Z" fill="#fe9f39" fill-rule="nonzero" node-id="92" stroke="none" target-height="21.590027" target-width="53.569946" target-x="771.65" target-y="605.56"></path><path d="M 742.06 631.27 C 740.44 634.56 739.06 637.99 737.60 641.34 C 736.85 643.06 736.08 644.78 735.21 646.43 C 734.87 647.06 734.51 647.69 734.13 648.31 C 733.75 648.93 733.81 648.80 734.30 648.13 C 733.54 648.85 734.12 648.54 736.02 647.19 C 729.46 648.58 731.49 657.85 737.52 658.28 C 750.99 659.28 764.30 661.60 777.68 663.28 C 780.68 663.66 783.32 660.41 783.32 657.63 C 783.32 654.26 780.71 652.37 777.68 651.98 C 777.44 651.98 776.13 651.78 777.05 651.91 L 775.17 651.65 C 773.70 651.45 772.24 651.23 770.77 651.02 L 760.26 649.54 C 752.69 648.54 745.10 647.54 737.49 646.96 L 738.99 658.05 C 742.99 657.21 744.90 652.32 746.40 649.05 C 748.28 645.05 749.83 640.90 751.78 636.92 C 754.97 630.42 745.24 624.69 742.03 631.23 Z" fill="#fe9f39" fill-rule="nonzero" node-id="94" stroke="none" target-height="38.96997" target-width="53.859985" target-x="729.46" target-y="624.69"></path><path d="M 294.82 289.90 L 705.82 289.90 C 717.26 289.90 726.53 299.17 726.53 310.61 L 726.53 790.61 C 726.53 802.05 717.26 811.32 705.82 811.32 L 294.82 811.32 C 283.38 811.32 274.11 802.05 274.11 790.61 L 274.11 310.61 C 274.11 299.17 283.38 289.90 294.82 289.90 Z" fill="#cedfff" fill-rule="nonzero" node-id="96" stroke="none" target-height="521.42004" target-width="452.42004" target-x="274.11" target-y="289.9"></path><path d="M 705.83 820.36 L 294.83 820.36 C 278.43 820.34 265.14 807.05 265.12 790.65 L 265.12 310.65 C 265.14 294.25 278.43 280.96 294.83 280.94 L 705.83 280.94 C 722.23 280.96 735.52 294.25 735.54 310.65 L 735.54 790.65 C 735.52 807.05 722.23 820.34 705.83 820.36 Z M 294.83 298.90 C 288.37 298.91 283.13 304.15 283.12 310.61 L 283.12 790.61 C 283.13 797.07 288.37 802.31 294.83 802.32 L 705.83 802.32 C 712.29 802.31 717.53 797.07 717.54 790.61 L 717.54 310.61 C 717.53 304.15 712.29 298.91 705.83 298.90 Z" fill="#5eadef" fill-rule="nonzero" node-id="98" stroke="none" target-height="539.42" target-width="470.41992" target-x="265.12" target-y="280.94"></path><path d="M 489.35 753.00 L 329.35 753.00 C 325.02 753.01 320.86 751.30 317.79 748.24 C 314.72 745.18 313.00 741.02 313.00 736.69 L 313.00 355.16 C 313.00 346.15 320.30 338.85 329.31 338.85 L 673.81 338.85 C 682.82 338.85 690.12 346.15 690.13 355.16 L 690.13 601.16 C 675.16 662.28 614.85 745.47 489.35 753.00 Z" fill="#ffffff" fill-rule="nonzero" node-id="100" stroke="none" target-height="414.1606" target-width="377.13007" target-x="313" target-y="338.85"></path><path d="M 427.85 247.86 L 572.18 247.86 C 575.85 247.85 579.36 249.31 581.95 251.90 C 584.55 254.49 586.00 258.00 586.00 261.67 L 586.00 276.10 C 586.00 283.72 579.82 289.90 572.20 289.90 L 427.85 289.90 C 420.23 289.90 414.05 283.72 414.05 276.10 L 414.05 261.67 C 414.05 258.01 415.50 254.50 418.09 251.91 C 420.68 249.32 424.19 247.86 427.85 247.86 Z" fill="#3a3a77" fill-rule="nonzero" node-id="102" stroke="none" target-height="42.045303" target-width="171.95538" target-x="414.0473" target-y="247.85469"></path><path d="M 811.80 214.65 L 788.00 190.17 L 751.00 247.90 Z" fill="#d3dcf4" fill-rule="nonzero" node-id="104" stroke="none" target-height="57.73001" target-width="60.799988" target-x="751" target-y="190.16998"></path><path d="M 847.57 251.67 L 776.00 262.34 L 844.39 287.44 Z" fill="#d3dcf4" fill-rule="nonzero" node-id="106" stroke="none" target-height="35.770004" target-width="71.57007" target-x="776" target-y="251.67"></path><path d="M 407.77 420.43 C 407.76 429.78 400.18 437.36 390.82 437.36 C 381.47 437.36 373.89 429.77 373.89 420.42 C 373.89 411.06 381.48 403.48 390.83 403.48 C 400.19 403.49 407.77 411.07 407.77 420.43 Z" fill="#fe9f39" fill-rule="nonzero" node-id="108" stroke="none" target-height="33.883667" target-width="33.881836" target-x="373.88815" target-y="403.48"></path><path d="M 437.00 409.13 L 612.70 409.13 C 619.46 409.13 624.94 414.61 624.94 421.37 L 624.94 421.37 C 624.93 428.13 619.46 433.60 612.70 433.60 L 437.00 433.60 C 430.24 433.60 424.77 428.13 424.76 421.37 L 424.76 421.37 C 424.76 414.61 430.24 409.13 437.00 409.13 Z" fill="#5d83ff" fill-rule="nonzero" node-id="110" stroke="none" target-height="24.46997" target-width="200.18002" target-x="424.75998" target-y="409.13004"></path><path d="M 407.77 497.61 C 407.77 506.97 400.19 514.55 390.83 514.55 C 381.47 514.55 373.89 506.97 373.89 497.61 C 373.89 488.25 381.47 480.67 390.83 480.67 C 400.18 480.68 407.76 488.26 407.77 497.61 Z" fill="#fe9f39" fill-rule="nonzero" node-id="112" stroke="none" target-height="33.879974" target-width="33.879974" target-x="373.89" target-y="480.67"></path><path d="M 437.00 486.31 L 570.61 486.31 C 573.86 486.31 576.97 487.60 579.26 489.90 C 581.56 492.19 582.84 495.30 582.84 498.55 L 582.84 498.55 C 582.84 501.80 581.56 504.91 579.26 507.20 C 576.97 509.50 573.86 510.79 570.61 510.79 L 437.00 510.79 C 430.24 510.79 424.76 505.31 424.76 498.55 L 424.76 498.55 C 424.76 491.79 430.24 486.31 437.00 486.31 Z" fill="#cedfff" fill-rule="nonzero" node-id="114" stroke="none" target-height="24.480011" target-width="158.08267" target-x="424.75998" target-y="486.31"></path><path d="M 407.77 572.91 C 407.78 579.76 403.66 585.95 397.33 588.58 C 391.00 591.21 383.71 589.77 378.86 584.93 C 374.01 580.09 372.56 572.80 375.18 566.46 C 377.80 560.13 383.98 556.00 390.83 556.00 C 400.17 556.01 407.75 563.57 407.77 572.91 Z" fill="#fe9f39" fill-rule="nonzero" node-id="116" stroke="none" target-height="35.213318" target-width="35.22577" target-x="372.5564" target-y="556"></path><path d="M 437.00 561.61 L 612.70 561.61 C 619.46 561.61 624.94 567.09 624.94 573.85 L 624.94 573.85 C 624.94 580.61 619.46 586.09 612.70 586.09 L 437.00 586.09 C 430.24 586.09 424.76 580.61 424.76 573.85 L 424.76 573.85 C 424.76 567.09 430.24 561.61 437.00 561.61 Z" fill="#cedfff" fill-rule="nonzero" node-id="118" stroke="none" target-height="24.480042" target-width="200.18002" target-x="424.75998" target-y="561.61"></path><path d="M 407.77 648.21 C 407.77 657.57 400.19 665.15 390.83 665.15 C 381.47 665.15 373.89 657.57 373.89 648.21 C 373.89 638.85 381.47 631.27 390.83 631.27 C 400.18 631.28 407.76 638.86 407.77 648.21 Z" fill="#fe9f39" fill-rule="nonzero" node-id="120" stroke="none" target-height="33.880005" target-width="33.879974" target-x="373.89" target-y="631.27"></path><path d="M 437.00 636.91 L 570.61 636.91 C 573.86 636.91 576.97 638.20 579.26 640.50 C 581.56 642.79 582.84 645.90 582.84 649.15 L 582.84 649.15 C 582.84 652.40 581.56 655.51 579.26 657.80 C 576.97 660.10 573.86 661.39 570.61 661.39 L 437.00 661.39 C 430.24 661.39 424.76 655.91 424.76 649.15 L 424.76 649.15 C 424.76 642.39 430.24 636.91 437.00 636.91 Z" fill="#cedfff" fill-rule="nonzero" node-id="122" stroke="none" target-height="24.480042" target-width="158.08267" target-x="424.75998" target-y="636.91"></path><path d="M 478.68 753.00 C 478.68 753.00 548.33 721.00 545.82 656.37 C 618.61 663.90 667.56 643.82 690.15 601.15 C 688.26 618.09 664.42 672.05 625.51 703.43 C 581.69 738.77 560.88 753.63 478.68 753.00 Z" fill="#c6d3f4" fill-rule="nonzero" node-id="124" stroke="none" target-height="152.47998" target-width="211.47003" target-x="478.68" target-y="601.15"></path><path d="M 584.46 342.00 C 585.21 342.00 585.84 341.45 585.94 340.71 C 586.22 338.71 586.40 336.62 586.48 334.59 C 586.51 333.76 585.87 333.06 585.04 333.03 C 584.21 333.00 583.51 333.64 583.48 334.47 C 583.40 336.41 583.23 338.37 582.96 340.30 C 582.85 341.12 583.42 341.88 584.24 341.99 Z" fill="#88d493" fill-rule="nonzero" node-id="126" stroke="none" target-height="9.004883" target-width="3.6658325" target-x="582.8473" target-y="332.99686"></path><path d="M 584.31 324.13 L 584.54 324.13 C 585.36 324.00 585.92 323.24 585.80 322.42 C 585.18 318.39 584.21 314.43 582.91 310.57 C 582.65 309.78 581.80 309.36 581.01 309.62 C 580.22 309.88 579.80 310.73 580.06 311.52 C 581.31 315.22 582.24 319.01 582.83 322.87 C 582.94 323.60 583.57 324.13 584.31 324.13 Z M 576.81 301.55 C 577.05 301.55 577.29 301.49 577.50 301.38 C 578.22 301.00 578.51 300.11 578.14 299.38 C 576.28 295.78 574.18 292.31 571.87 288.98 C 571.58 288.51 571.05 288.24 570.50 288.27 C 569.94 288.31 569.45 288.65 569.23 289.16 C 569.00 289.66 569.07 290.25 569.41 290.69 C 571.65 293.91 573.67 297.28 575.48 300.76 C 575.74 301.25 576.25 301.55 576.81 301.55 Z M 563.29 281.89 C 563.66 281.90 564.02 281.76 564.29 281.52 C 564.59 281.26 564.78 280.89 564.80 280.50 C 564.83 280.10 564.70 279.71 564.44 279.41 C 561.84 276.41 559.02 273.50 556.04 270.69 C 555.44 270.12 554.48 270.15 553.91 270.75 C 553.35 271.36 553.38 272.31 553.98 272.88 C 556.89 275.62 559.65 278.48 562.18 281.38 C 562.46 281.70 562.86 281.89 563.29 281.89 Z M 545.92 265.49 C 546.38 265.50 546.82 265.28 547.10 264.92 C 547.61 264.27 547.50 263.33 546.85 262.81 C 543.70 260.34 540.40 257.97 537.03 255.76 C 536.58 255.44 536.00 255.40 535.51 255.64 C 535.01 255.88 534.69 256.37 534.67 256.92 C 534.64 257.47 534.92 257.99 535.39 258.27 C 538.69 260.43 541.92 262.76 545.00 265.17 C 545.26 265.38 545.59 265.49 545.92 265.49 Z M 525.92 252.38 C 526.61 252.38 527.21 251.92 527.38 251.25 C 527.55 250.58 527.25 249.89 526.64 249.56 C 523.16 247.65 519.55 245.80 515.92 244.08 C 515.17 243.73 514.28 244.05 513.92 244.79 C 513.75 245.15 513.72 245.56 513.86 245.94 C 513.99 246.31 514.27 246.62 514.63 246.79 C 518.21 248.49 521.77 250.31 525.20 252.19 C 525.43 252.32 525.68 252.38 525.94 252.38 Z M 504.33 242.13 C 504.94 242.13 505.49 241.76 505.72 241.19 C 506.03 240.42 505.66 239.55 504.89 239.24 C 501.23 237.75 497.43 236.33 493.62 235.02 C 492.84 234.74 491.98 235.15 491.70 235.94 C 491.43 236.72 491.84 237.57 492.62 237.85 C 496.39 239.15 500.13 240.55 503.74 242.02 C 503.93 242.09 504.14 242.13 504.35 242.13 Z M 481.73 234.34 C 482.47 234.34 483.10 233.78 483.21 233.05 C 483.31 232.31 482.85 231.61 482.14 231.40 C 478.35 230.31 474.44 229.29 470.51 228.40 C 469.70 228.21 468.90 228.71 468.70 229.51 C 468.51 230.32 469.01 231.13 469.82 231.32 C 473.70 232.24 477.57 233.25 481.31 234.32 C 481.45 234.35 481.60 234.35 481.75 234.34 Z M 290.50 230.09 L 291.71 230.09 C 292.11 230.09 292.49 229.93 292.77 229.64 C 293.05 229.36 293.20 228.98 293.20 228.58 C 293.21 228.18 293.05 227.79 292.76 227.51 C 292.48 227.23 292.09 227.08 291.69 227.09 L 290.50 227.09 C 286.79 227.09 283.21 226.96 279.87 226.70 C 279.05 226.64 278.33 227.26 278.26 228.08 C 278.23 228.48 278.35 228.87 278.61 229.17 C 278.87 229.48 279.24 229.66 279.64 229.69 C 283.06 230.00 286.71 230.09 290.50 230.09 Z M 303.65 229.63 L 303.75 229.63 C 307.32 229.40 311.23 229.07 315.75 228.63 C 316.58 228.55 317.19 227.81 317.11 226.99 C 317.02 226.16 316.29 225.55 315.46 225.63 C 311.01 226.07 307.13 226.39 303.59 226.63 C 302.76 226.66 302.11 227.35 302.14 228.18 C 302.17 229.01 302.86 229.66 303.69 229.63 Z M 458.49 228.84 C 459.32 228.92 460.05 228.31 460.13 227.48 C 460.21 226.65 459.60 225.92 458.77 225.84 C 454.90 225.11 450.92 224.44 446.92 223.84 C 446.09 223.72 445.32 224.29 445.20 225.12 C 445.08 225.95 445.65 226.72 446.48 226.84 C 450.48 227.43 454.39 228.09 458.21 228.84 Z M 267.91 228.13 C 268.74 228.21 269.47 227.60 269.55 226.77 C 269.63 225.94 269.02 225.21 268.19 225.13 C 264.34 224.40 260.56 223.39 256.85 222.13 C 256.07 221.85 255.21 222.27 254.93 223.05 C 254.65 223.83 255.07 224.69 255.85 224.97 C 259.69 226.28 263.61 227.33 267.60 228.09 C 267.70 228.11 267.81 228.13 267.91 228.13 Z M 327.46 227.37 L 327.62 227.37 L 331.18 226.98 C 333.95 226.69 336.72 226.40 339.50 226.13 C 340.33 226.05 340.94 225.31 340.86 224.49 C 340.77 223.66 340.04 223.05 339.21 223.13 C 336.42 223.40 333.63 223.69 330.86 223.99 L 327.30 224.38 C 326.47 224.42 325.84 225.13 325.88 225.96 C 325.92 226.79 326.63 227.42 327.46 227.38 Z M 434.84 225.37 C 435.67 225.41 436.38 224.78 436.42 223.95 C 436.46 223.12 435.83 222.41 435.00 222.37 C 431.10 221.95 427.08 221.59 423.00 221.29 C 422.17 221.23 421.45 221.86 421.40 222.69 C 421.34 223.51 421.96 224.23 422.79 224.29 C 426.79 224.58 430.79 224.94 434.64 225.36 Z M 351.26 225.09 L 351.38 225.09 C 355.38 224.77 359.38 224.49 363.28 224.26 C 364.11 224.21 364.74 223.50 364.69 222.67 C 364.64 221.84 363.93 221.21 363.10 221.26 C 359.20 221.50 355.18 221.78 351.10 222.10 C 350.27 222.13 349.63 222.83 349.66 223.66 C 349.69 224.49 350.39 225.13 351.22 225.10 Z M 375.13 223.65 L 375.19 223.65 C 379.19 223.50 383.19 223.39 387.11 223.33 C 387.51 223.32 387.89 223.16 388.16 222.88 C 388.44 222.59 388.60 222.21 388.59 221.81 C 388.59 221.41 388.43 221.03 388.14 220.75 C 387.86 220.47 387.47 220.32 387.07 220.33 C 383.16 220.39 379.12 220.50 375.07 220.66 C 374.24 220.67 373.58 221.36 373.60 222.19 C 373.61 223.01 374.29 223.67 375.12 223.66 Z M 411.00 223.65 C 411.83 223.67 412.51 223.01 412.53 222.18 C 412.55 221.35 411.89 220.67 411.06 220.65 C 407.14 220.49 403.11 220.39 399.06 220.34 C 398.23 220.34 397.56 221.01 397.56 221.84 C 397.56 222.67 398.23 223.34 399.06 223.34 C 403.06 223.39 407.06 223.49 410.97 223.65 Z M 245.42 220.32 C 246.11 220.32 246.70 219.85 246.87 219.19 C 247.04 218.52 246.73 217.83 246.13 217.50 C 242.69 215.64 239.40 213.52 236.28 211.16 C 235.85 210.81 235.27 210.73 234.77 210.93 C 234.26 211.14 233.90 211.61 233.84 212.15 C 233.78 212.70 234.02 213.23 234.47 213.55 C 237.71 216.00 241.13 218.21 244.71 220.14 C 244.93 220.24 245.18 220.29 245.42 220.27 Z M 226.42 205.99 C 226.82 205.99 227.20 205.83 227.48 205.55 C 227.76 205.27 227.92 204.89 227.92 204.49 C 227.92 204.09 227.76 203.71 227.48 203.43 C 224.71 200.65 222.10 197.71 219.66 194.63 C 219.13 194.02 218.22 193.94 217.60 194.44 C 216.97 194.93 216.84 195.84 217.31 196.49 C 219.80 199.66 222.47 202.69 225.31 205.56 C 225.60 205.82 225.99 205.96 226.38 205.94 Z M 211.50 187.28 C 212.05 187.28 212.55 186.98 212.81 186.50 C 213.08 186.02 213.06 185.43 212.76 184.97 C 210.69 181.75 208.69 178.32 206.76 174.75 C 206.37 174.02 205.46 173.74 204.73 174.13 C 204.00 174.52 203.72 175.43 204.11 176.16 C 206.04 179.80 208.11 183.31 210.20 186.59 C 210.48 187.03 210.98 187.30 211.50 187.28 Z" fill="#88d493" fill-rule="nonzero" node-id="128" stroke="none" target-height="150.39323" target-width="382.19897" target-x="203.72064" target-y="173.74065"></path><path d="M 200.23 166.13 C 200.44 166.13 200.64 166.09 200.83 166.01 C 201.20 165.85 201.49 165.55 201.64 165.17 C 201.78 164.80 201.77 164.38 201.60 164.01 C 200.81 162.23 200.04 160.38 199.29 158.53 C 199.11 158.01 198.65 157.63 198.11 157.55 C 197.56 157.46 197.01 157.68 196.68 158.12 C 196.35 158.56 196.28 159.15 196.51 159.65 C 197.27 161.53 198.06 163.41 198.86 165.22 C 199.09 165.77 199.63 166.13 200.23 166.13 Z" fill="#88d493" fill-rule="nonzero" node-id="130" stroke="none" target-height="8.669739" target-width="5.498398" target-x="196.28174" target-y="157.46194"></path><path d="M 126.10 46.56 L 132.37 188.83 L 179.37 139.51 C 179.37 139.51 125.90 42.57 125.53 44.18 L 127.53 42.47 C 125.95 42.01 184.69 135.84 184.69 135.84 L 250.62 118.75 L 129.39 44.12 Z" fill="#88d493" fill-rule="nonzero" node-id="132" stroke="none" target-height="146.82" target-width="125.08998" target-x="125.53" target-y="42.01"></path></svg>