<?xml version="1.0" standalone="no"?><!DOCTYPE svg PUBLIC "-//W3C//DTD SVG 1.1//EN" "http://www.w3.org/Graphics/SVG/1.1/DTD/svg11.dtd"><svg t="1775556095482" class="icon" viewBox="0 0 1025 1024" version="1.1" xmlns="http://www.w3.org/2000/svg" p-id="5910" width="128.125" height="128" xmlns:xlink="http://www.w3.org/1999/xlink"><path d="M1004.544 759.808q16.384 30.72 18.944 55.296t-7.168 42.496-29.184 27.648-45.056 9.728l-111.616 0 0-453.632q29.696 53.248 59.392 108.544 25.6 47.104 55.808 103.424t58.88 106.496zM117.76 894.976q-14.336 0-30.208-9.216t-25.088-27.136-8.704-44.032 18.944-58.88q27.648-51.2 58.368-107.008t57.344-103.936q30.72-56.32 60.416-109.568l0 459.776-131.072 0zM679.936 124.928l83.968 181.248 0 588.8-445.44 0 0-478.208 99.328 209.92z" p-id="5911" fill="#5884a4"></path></svg>